<?xml version="1.0" encoding="UTF-8"?>
<svg xmlns="http://www.w3.org/2000/svg" xmlns:xlink="http://www.w3.org/1999/xlink" width="132px" height="36px" viewBox="0 0 131 36" version="1.1">
<g id="surface1">
<path style=" stroke:none;fill-rule:nonzero;fill:rgb(7.843137%,65.882353%,0%);fill-opacity:1;" d="M 36.191406 24.503906 C 33.46875 24.355469 30.988281 22.886719 29.539062 20.570312 C 30.398438 13.707031 32.902344 11.570312 36.21875 11.570312 C 39.53125 11.570312 42.046875 14.144531 42.046875 18 C 42.046875 21.855469 39.480469 24.429688 36.21875 24.429688 M 36.21875 7.277344 C 31.390625 7.082031 27.117188 10.375 26.070312 15.09375 C 24.972656 12.789062 24.140625 10.363281 23.59375 7.867188 L 15.410156 7.867188 L 15.410156 18.027344 C 15.410156 21.714844 13.742188 24.453125 10.46875 24.453125 C 7.191406 24.453125 5.328125 21.730469 5.328125 18.027344 L 5.328125 7.867188 L 0.628906 7.867188 L 0.628906 18.027344 C 0.523438 20.839844 1.492188 23.589844 3.339844 25.714844 C 5.164062 27.703125 7.757812 28.804688 10.453125 28.734375 C 16.117188 28.734375 20.085938 24.378906 20.085938 18.140625 L 20.085938 11.277344 C 21.046875 14.96875 22.636719 18.472656 24.789062 21.625 L 22.269531 36 L 27.046875 36 L 28.703125 25.816406 C 29.253906 26.289062 29.835938 26.71875 30.449219 27.101562 C 32.046875 28.113281 33.882812 28.679688 35.769531 28.75 L 36.203125 28.75 C 39.039062 28.777344 41.765625 27.648438 43.75 25.617188 C 45.730469 23.589844 46.800781 20.835938 46.710938 18 C 46.777344 15.171875 45.695312 12.441406 43.710938 10.425781 C 41.730469 8.414062 39.015625 7.289062 36.191406 7.316406 "/>
<path style=" stroke:none;fill-rule:nonzero;fill:rgb(7.843137%,65.882353%,0%);fill-opacity:1;" d="M 103.773438 10.105469 L 103.773438 7.945312 L 99.148438 7.945312 L 99.148438 28.042969 L 103.835938 28.042969 L 103.835938 20.171875 C 103.835938 15.324219 104.273438 11.839844 110.773438 12.292969 L 110.773438 7.714844 C 107.742188 7.484375 105.378906 8.113281 103.773438 10.117188 "/>
<path style=" stroke:none;fill-rule:nonzero;fill:rgb(7.843137%,65.882353%,0%);fill-opacity:1;" d="M 71.292969 7.933594 L 67.902344 22 L 64.28125 7.933594 L 58.320312 7.933594 L 54.699219 22 L 51.308594 7.933594 L 46.570312 7.933594 L 51.769531 28.054688 L 57.394531 28.054688 L 61.300781 13.769531 L 65.167969 28.054688 L 70.792969 28.054688 L 76.289062 7.933594 Z M 71.292969 7.933594 "/>
<path style=" stroke:none;fill-rule:nonzero;fill:rgb(7.843137%,65.882353%,0%);fill-opacity:1;" d="M 86.589844 24.519531 C 83.261719 24.519531 80.769531 21.882812 80.769531 18.089844 C 80.769531 14.296875 83.339844 11.660156 86.589844 11.660156 C 89.835938 11.660156 92.46875 14.144531 92.46875 18 C 92.46875 21.855469 89.902344 24.429688 86.640625 24.429688 M 86.640625 7.265625 C 83.800781 7.222656 81.066406 8.347656 79.074219 10.375 C 77.085938 12.402344 76.007812 15.15625 76.09375 18 C 75.960938 21.84375 77.933594 25.453125 81.234375 27.414062 C 84.539062 29.375 88.648438 29.375 91.953125 27.414062 C 95.257812 25.453125 97.226562 21.84375 97.09375 18 C 97.164062 15.175781 96.085938 12.441406 94.105469 10.425781 C 92.125 8.414062 89.410156 7.289062 86.589844 7.316406 "/>
<path style=" stroke:none;fill-rule:nonzero;fill:rgb(7.843137%,65.882353%,0%);fill-opacity:1;" d="M 117.476562 18.167969 L 118.554688 18.167969 L 125.09375 28.054688 L 130.371094 28.054688 L 122.859375 17.085938 C 126.554688 15.5625 128.960938 11.949219 128.945312 7.945312 L 124.28125 7.945312 C 124.28125 12.277344 120.867188 13.925781 117.476562 13.925781 L 117.476562 0 L 112.789062 0 L 112.789062 28.054688 L 117.464844 28.054688 Z M 117.476562 18.167969 "/>
</g>
</svg>
